<mxfile host="app.diagrams.net" agent="Mozilla/5.0 (Windows NT 10.0; Win64; x64) AppleWebKit/537.36 (KHTML, like Gecko) Chrome/130.0.0.0 Safari/537.36" version="24.8.4">
  <diagram name="Página-1" id="RdLw1bMD6lbhYA6hik2g">
    <mxGraphModel dx="2261" dy="772" grid="1" gridSize="10" guides="1" tooltips="1" connect="1" arrows="1" fold="1" page="1" pageScale="1" pageWidth="827" pageHeight="1169" math="0" shadow="0">
      <root>
        <mxCell id="0" />
        <mxCell id="1" parent="0" />
        <mxCell id="QsbjgA7zNwl0i30f77pl-1" value="" style="ellipse;fillColor=strokeColor;html=1;" vertex="1" parent="1">
          <mxGeometry x="-20" y="258" width="30" height="30" as="geometry" />
        </mxCell>
        <mxCell id="QsbjgA7zNwl0i30f77pl-2" value="" style="endArrow=classic;html=1;rounded=0;exitX=1;exitY=0.5;exitDx=0;exitDy=0;" edge="1" parent="1" source="QsbjgA7zNwl0i30f77pl-1">
          <mxGeometry width="50" height="50" relative="1" as="geometry">
            <mxPoint x="80" y="288" as="sourcePoint" />
            <mxPoint x="140" y="273" as="targetPoint" />
          </mxGeometry>
        </mxCell>
        <mxCell id="QsbjgA7zNwl0i30f77pl-5" value="0" style="swimlane;childLayout=stackLayout;horizontal=1;startSize=50;horizontalStack=0;rounded=1;fontSize=14;fontStyle=0;strokeWidth=2;resizeParent=0;resizeLast=1;shadow=0;dashed=0;align=center;arcSize=4;whiteSpace=wrap;html=1;" vertex="1" parent="1">
          <mxGeometry x="140" y="208" width="160" height="140" as="geometry" />
        </mxCell>
        <mxCell id="QsbjgA7zNwl0i30f77pl-18" value="Caso Normal&amp;nbsp;&lt;div&gt;(Sem emergência)&lt;/div&gt;" style="text;html=1;align=center;verticalAlign=middle;resizable=0;points=[];autosize=1;strokeColor=none;fillColor=none;" vertex="1" parent="QsbjgA7zNwl0i30f77pl-5">
          <mxGeometry y="50" width="160" height="90" as="geometry" />
        </mxCell>
        <mxCell id="QsbjgA7zNwl0i30f77pl-7" value="Cadastro/Resolução&amp;nbsp;&lt;div&gt;da emergência&lt;/div&gt;" style="text;html=1;align=center;verticalAlign=middle;resizable=0;points=[];autosize=1;strokeColor=none;fillColor=none;" vertex="1" parent="1">
          <mxGeometry y="231" width="140" height="40" as="geometry" />
        </mxCell>
        <mxCell id="QsbjgA7zNwl0i30f77pl-8" value="1" style="swimlane;childLayout=stackLayout;horizontal=1;startSize=50;horizontalStack=0;rounded=1;fontSize=14;fontStyle=0;strokeWidth=2;resizeParent=0;resizeLast=1;shadow=0;dashed=0;align=center;arcSize=4;whiteSpace=wrap;html=1;" vertex="1" parent="1">
          <mxGeometry x="560" y="100" width="160" height="120" as="geometry" />
        </mxCell>
        <mxCell id="QsbjgA7zNwl0i30f77pl-20" value="Caso Incêndio" style="text;html=1;align=center;verticalAlign=middle;resizable=0;points=[];autosize=1;strokeColor=none;fillColor=none;" vertex="1" parent="QsbjgA7zNwl0i30f77pl-8">
          <mxGeometry y="50" width="160" height="70" as="geometry" />
        </mxCell>
        <mxCell id="QsbjgA7zNwl0i30f77pl-10" value="2" style="swimlane;childLayout=stackLayout;horizontal=1;startSize=50;horizontalStack=0;rounded=1;fontSize=14;fontStyle=0;strokeWidth=2;resizeParent=0;resizeLast=1;shadow=0;dashed=0;align=center;arcSize=4;whiteSpace=wrap;html=1;" vertex="1" parent="1">
          <mxGeometry x="570" y="310" width="160" height="120" as="geometry" />
        </mxCell>
        <mxCell id="QsbjgA7zNwl0i30f77pl-21" value="Caso Outros" style="text;html=1;align=center;verticalAlign=middle;resizable=0;points=[];autosize=1;strokeColor=none;fillColor=none;" vertex="1" parent="QsbjgA7zNwl0i30f77pl-10">
          <mxGeometry y="50" width="160" height="70" as="geometry" />
        </mxCell>
        <mxCell id="QsbjgA7zNwl0i30f77pl-12" value="" style="endArrow=classic;html=1;rounded=0;entryX=0;entryY=0.5;entryDx=0;entryDy=0;exitX=0.5;exitY=0;exitDx=0;exitDy=0;" edge="1" parent="1" source="QsbjgA7zNwl0i30f77pl-28" target="QsbjgA7zNwl0i30f77pl-8">
          <mxGeometry width="50" height="50" relative="1" as="geometry">
            <mxPoint x="370" y="250" as="sourcePoint" />
            <mxPoint x="460" y="120" as="targetPoint" />
            <Array as="points">
              <mxPoint x="372" y="160" />
            </Array>
          </mxGeometry>
        </mxCell>
        <mxCell id="QsbjgA7zNwl0i30f77pl-13" value="" style="endArrow=classic;html=1;rounded=0;entryX=0;entryY=0.5;entryDx=0;entryDy=0;exitX=0.5;exitY=1;exitDx=0;exitDy=0;" edge="1" parent="1" source="QsbjgA7zNwl0i30f77pl-28" target="QsbjgA7zNwl0i30f77pl-10">
          <mxGeometry width="50" height="50" relative="1" as="geometry">
            <mxPoint x="460" y="350" as="sourcePoint" />
            <mxPoint x="390" y="410" as="targetPoint" />
            <Array as="points">
              <mxPoint x="372" y="370" />
            </Array>
          </mxGeometry>
        </mxCell>
        <mxCell id="QsbjgA7zNwl0i30f77pl-22" value="Incêndio" style="text;html=1;align=center;verticalAlign=middle;resizable=0;points=[];autosize=1;strokeColor=none;fillColor=none;" vertex="1" parent="1">
          <mxGeometry x="380" y="178" width="70" height="30" as="geometry" />
        </mxCell>
        <mxCell id="QsbjgA7zNwl0i30f77pl-23" value="Acionamento por&amp;nbsp;&lt;div&gt;Usuário ou Hóspede&lt;/div&gt;" style="text;html=1;align=center;verticalAlign=middle;resizable=0;points=[];autosize=1;strokeColor=none;fillColor=none;" vertex="1" parent="1">
          <mxGeometry x="380" y="320" width="130" height="40" as="geometry" />
        </mxCell>
        <mxCell id="QsbjgA7zNwl0i30f77pl-25" value="" style="endArrow=classic;html=1;rounded=0;exitX=1;exitY=0.417;exitDx=0;exitDy=0;exitPerimeter=0;entryX=0;entryY=0;entryDx=0;entryDy=0;" edge="1" parent="1" source="QsbjgA7zNwl0i30f77pl-8" target="QsbjgA7zNwl0i30f77pl-27">
          <mxGeometry width="50" height="50" relative="1" as="geometry">
            <mxPoint x="810" y="210" as="sourcePoint" />
            <mxPoint x="860" y="160" as="targetPoint" />
          </mxGeometry>
        </mxCell>
        <mxCell id="QsbjgA7zNwl0i30f77pl-26" value="" style="endArrow=classic;html=1;rounded=0;exitX=0.994;exitY=0.342;exitDx=0;exitDy=0;exitPerimeter=0;entryX=0;entryY=1;entryDx=0;entryDy=0;" edge="1" parent="1" source="QsbjgA7zNwl0i30f77pl-10" target="QsbjgA7zNwl0i30f77pl-27">
          <mxGeometry width="50" height="50" relative="1" as="geometry">
            <mxPoint x="770" y="390" as="sourcePoint" />
            <mxPoint x="820" y="340" as="targetPoint" />
          </mxGeometry>
        </mxCell>
        <mxCell id="QsbjgA7zNwl0i30f77pl-27" value="" style="ellipse;html=1;shape=endState;fillColor=strokeColor;" vertex="1" parent="1">
          <mxGeometry x="900" y="223" width="30" height="30" as="geometry" />
        </mxCell>
        <mxCell id="QsbjgA7zNwl0i30f77pl-28" value="" style="rhombus;whiteSpace=wrap;html=1;fillColor=#000000;" vertex="1" parent="1">
          <mxGeometry x="350" y="253" width="44" height="40" as="geometry" />
        </mxCell>
        <mxCell id="QsbjgA7zNwl0i30f77pl-30" value="" style="endArrow=classic;html=1;rounded=0;exitX=0.981;exitY=0.167;exitDx=0;exitDy=0;exitPerimeter=0;entryX=0;entryY=0.5;entryDx=0;entryDy=0;" edge="1" parent="1" source="QsbjgA7zNwl0i30f77pl-18" target="QsbjgA7zNwl0i30f77pl-28">
          <mxGeometry width="50" height="50" relative="1" as="geometry">
            <mxPoint x="270" y="410" as="sourcePoint" />
            <mxPoint x="320" y="360" as="targetPoint" />
          </mxGeometry>
        </mxCell>
        <mxCell id="QsbjgA7zNwl0i30f77pl-32" value="Resolução da emergência" style="text;html=1;align=center;verticalAlign=middle;resizable=0;points=[];autosize=1;strokeColor=none;fillColor=none;" vertex="1" parent="1">
          <mxGeometry x="770" y="130" width="160" height="30" as="geometry" />
        </mxCell>
        <mxCell id="QsbjgA7zNwl0i30f77pl-33" value="Resolução da emergência" style="text;html=1;align=center;verticalAlign=middle;resizable=0;points=[];autosize=1;strokeColor=none;fillColor=none;" vertex="1" parent="1">
          <mxGeometry x="690" y="258" width="160" height="30" as="geometry" />
        </mxCell>
      </root>
    </mxGraphModel>
  </diagram>
</mxfile>
